<mxfile host="app.diagrams.net" modified="2021-09-05T02:20:16.603Z" agent="5.0 (Macintosh; Intel Mac OS X 10_15_7) AppleWebKit/537.36 (KHTML, like Gecko) Chrome/93.0.4577.63 Safari/537.36" etag="Q0xUoCmW9yiTdkIbsjlZ" version="14.9.6" type="github">
  <diagram name="Page-1" id="42789a77-a242-8287-6e28-9cd8cfd52e62">
    <mxGraphModel dx="1886" dy="514" grid="1" gridSize="10" guides="1" tooltips="1" connect="1" arrows="1" fold="1" page="1" pageScale="1" pageWidth="1100" pageHeight="850" background="none" math="0" shadow="0">
      <root>
        <mxCell id="0" />
        <mxCell id="1" parent="0" />
        <mxCell id="kajrkSCXimUMeCV8fqdz-9" style="edgeStyle=orthogonalEdgeStyle;rounded=0;orthogonalLoop=1;jettySize=auto;html=1;entryX=1;entryY=0.5;entryDx=0;entryDy=0;noEdgeStyle=1;strokeColor=none;" edge="1" parent="1" source="1ea317790d2ca983-1" target="1ea317790d2ca983-9">
          <mxGeometry relative="1" as="geometry" />
        </mxCell>
        <mxCell id="kajrkSCXimUMeCV8fqdz-28" style="edgeStyle=orthogonalEdgeStyle;rounded=0;orthogonalLoop=1;jettySize=auto;html=1;strokeColor=#000000;" edge="1" parent="1" source="1ea317790d2ca983-1" target="1ea317790d2ca983-9">
          <mxGeometry relative="1" as="geometry" />
        </mxCell>
        <mxCell id="1ea317790d2ca983-1" value="HTTP" style="ellipse;whiteSpace=wrap;html=1;rounded=0;shadow=1;comic=0;labelBackgroundColor=none;strokeWidth=1;fontFamily=Verdana;fontSize=12;align=center;fontStyle=1" parent="1" vertex="1">
          <mxGeometry x="131" y="774" width="90" height="60" as="geometry" />
        </mxCell>
        <mxCell id="kajrkSCXimUMeCV8fqdz-10" style="edgeStyle=orthogonalEdgeStyle;rounded=0;orthogonalLoop=1;jettySize=auto;html=1;entryX=0.5;entryY=1;entryDx=0;entryDy=0;noEdgeStyle=1;" edge="1" parent="1" source="1ea317790d2ca983-9" target="1ea317790d2ca983-10">
          <mxGeometry relative="1" as="geometry" />
        </mxCell>
        <mxCell id="kajrkSCXimUMeCV8fqdz-19" value="" style="edgeStyle=orthogonalEdgeStyle;rounded=0;orthogonalLoop=1;jettySize=auto;html=1;noEdgeStyle=1;" edge="1" parent="1" source="1ea317790d2ca983-9" target="kajrkSCXimUMeCV8fqdz-18">
          <mxGeometry relative="1" as="geometry" />
        </mxCell>
        <mxCell id="1ea317790d2ca983-9" value="报文格式" style="ellipse;whiteSpace=wrap;html=1;rounded=0;shadow=1;comic=0;labelBackgroundColor=none;strokeWidth=1;fontFamily=Verdana;fontSize=12;align=center;" parent="1" vertex="1">
          <mxGeometry x="300" y="719" width="75" height="50" as="geometry" />
        </mxCell>
        <mxCell id="kajrkSCXimUMeCV8fqdz-4" value="" style="edgeStyle=orthogonalEdgeStyle;rounded=0;orthogonalLoop=1;jettySize=auto;html=1;noEdgeStyle=1;" edge="1" parent="1" source="1ea317790d2ca983-10" target="kajrkSCXimUMeCV8fqdz-3">
          <mxGeometry relative="1" as="geometry" />
        </mxCell>
        <mxCell id="kajrkSCXimUMeCV8fqdz-15" value="" style="edgeStyle=orthogonalEdgeStyle;rounded=0;orthogonalLoop=1;jettySize=auto;html=1;noEdgeStyle=1;" edge="1" parent="1" source="1ea317790d2ca983-10" target="kajrkSCXimUMeCV8fqdz-14">
          <mxGeometry relative="1" as="geometry" />
        </mxCell>
        <mxCell id="kajrkSCXimUMeCV8fqdz-17" value="" style="edgeStyle=orthogonalEdgeStyle;rounded=0;orthogonalLoop=1;jettySize=auto;html=1;noEdgeStyle=1;" edge="1" parent="1" source="1ea317790d2ca983-10" target="kajrkSCXimUMeCV8fqdz-16">
          <mxGeometry relative="1" as="geometry" />
        </mxCell>
        <mxCell id="1ea317790d2ca983-10" value="请求体" style="ellipse;whiteSpace=wrap;html=1;rounded=0;shadow=1;comic=0;labelBackgroundColor=none;strokeWidth=1;fontFamily=Verdana;fontSize=12;align=center;" parent="1" vertex="1">
          <mxGeometry x="404" y="576" width="75" height="50" as="geometry" />
        </mxCell>
        <mxCell id="kajrkSCXimUMeCV8fqdz-3" value="开始行" style="ellipse;whiteSpace=wrap;html=1;rounded=0;shadow=1;comic=0;labelBackgroundColor=none;strokeWidth=1;fontFamily=Verdana;fontSize=12;align=center;" vertex="1" parent="1">
          <mxGeometry x="404" y="399" width="75" height="51" as="geometry" />
        </mxCell>
        <mxCell id="kajrkSCXimUMeCV8fqdz-14" value="请求头&lt;br&gt;" style="ellipse;whiteSpace=wrap;html=1;rounded=0;shadow=1;comic=0;labelBackgroundColor=none;strokeWidth=1;fontFamily=Verdana;fontSize=12;align=center;" vertex="1" parent="1">
          <mxGeometry x="300" y="256" width="75" height="50" as="geometry" />
        </mxCell>
        <mxCell id="kajrkSCXimUMeCV8fqdz-16" value="body" style="ellipse;whiteSpace=wrap;html=1;rounded=0;shadow=1;comic=0;labelBackgroundColor=none;strokeWidth=1;fontFamily=Verdana;fontSize=12;align=center;" vertex="1" parent="1">
          <mxGeometry x="131" y="201" width="75" height="50" as="geometry" />
        </mxCell>
        <mxCell id="kajrkSCXimUMeCV8fqdz-23" value="" style="edgeStyle=orthogonalEdgeStyle;rounded=0;orthogonalLoop=1;jettySize=auto;html=1;noEdgeStyle=1;" edge="1" parent="1" source="kajrkSCXimUMeCV8fqdz-18" target="kajrkSCXimUMeCV8fqdz-22">
          <mxGeometry relative="1" as="geometry" />
        </mxCell>
        <mxCell id="kajrkSCXimUMeCV8fqdz-25" value="" style="edgeStyle=orthogonalEdgeStyle;rounded=0;orthogonalLoop=1;jettySize=auto;html=1;noEdgeStyle=1;" edge="1" parent="1" source="kajrkSCXimUMeCV8fqdz-18" target="kajrkSCXimUMeCV8fqdz-24">
          <mxGeometry relative="1" as="geometry" />
        </mxCell>
        <mxCell id="kajrkSCXimUMeCV8fqdz-27" value="" style="edgeStyle=orthogonalEdgeStyle;rounded=0;orthogonalLoop=1;jettySize=auto;html=1;noEdgeStyle=1;" edge="1" parent="1" source="kajrkSCXimUMeCV8fqdz-18" target="kajrkSCXimUMeCV8fqdz-26">
          <mxGeometry relative="1" as="geometry" />
        </mxCell>
        <mxCell id="kajrkSCXimUMeCV8fqdz-18" value="响应体" style="ellipse;whiteSpace=wrap;html=1;rounded=0;shadow=1;comic=0;labelBackgroundColor=none;strokeWidth=1;fontFamily=Verdana;fontSize=12;align=center;" vertex="1" parent="1">
          <mxGeometry x="-37" y="256" width="75" height="50" as="geometry" />
        </mxCell>
        <mxCell id="kajrkSCXimUMeCV8fqdz-22" value="开始行" style="ellipse;whiteSpace=wrap;html=1;rounded=0;shadow=1;comic=0;labelBackgroundColor=none;strokeWidth=1;fontFamily=Verdana;fontSize=12;align=center;" vertex="1" parent="1">
          <mxGeometry x="-141" y="399" width="75" height="50" as="geometry" />
        </mxCell>
        <mxCell id="kajrkSCXimUMeCV8fqdz-24" value="响应头" style="ellipse;whiteSpace=wrap;html=1;rounded=0;shadow=1;comic=0;labelBackgroundColor=none;strokeWidth=1;fontFamily=Verdana;fontSize=12;align=center;" vertex="1" parent="1">
          <mxGeometry x="-141" y="576" width="75" height="50" as="geometry" />
        </mxCell>
        <mxCell id="kajrkSCXimUMeCV8fqdz-26" value="body" style="ellipse;whiteSpace=wrap;html=1;rounded=0;shadow=1;comic=0;labelBackgroundColor=none;strokeWidth=1;fontFamily=Verdana;fontSize=12;align=center;" vertex="1" parent="1">
          <mxGeometry x="-37" y="719" width="75" height="50" as="geometry" />
        </mxCell>
      </root>
    </mxGraphModel>
  </diagram>
</mxfile>
